<svg xmlns="http://www.w3.org/2000/svg" x="0" y="0" width="472" height="484" filtersec="colorsb4659216167" class="image-svg-svg primary" style="overflow: visible;"><svg xmlns="http://www.w3.org/2000/svg" viewBox="-0.022742141038179398 -0.12666243314743042 98.94083404541016 101.39258575439453"><g fill-rule="evenodd"><path d="M12.08 87.06c20.81 12.15 50.8 15.21 67.1 13.94 8.24-.64 15-5.44 16.34-14 2.35-14.79 7.89-42.59-3.71-61.52a12.31 12.31 0 0 1 1.11 4.18 234 234 0 0 1 1 25.53v.08a261.52 261.52 0 0 1-3.09 27.35c-1.24 7.72-7.27 12-14.68 12.61-21.5 1.68-43.87.06-64.06-8.13zm78-64.23z" fill="#cb3828"/><path d="M39.23 23.58a133.75 133.75 0 0 0-19.1 5.35 11.62 11.62 0 0 0-7.43 8.43c-.07.33-.15.66-.22 1h5.44a9 9 0 0 1 5.88-5.21 126.8 126.8 0 0 1 22.27-4.76 148.69 148.69 0 0 1 26.74-.69c4.53.3 7.89 2.39 8.19 6.3 1.17 13.43.53 23-1.89 36.23-.81 4.41-4.65 7-9.53 7.48-17.1 1.83-34.72 1.29-51.09-3.82a6.31 6.31 0 0 1-4.75-6.3h-6c-.22 2.48-.4 5-.56 7.64-.28 4.69 1.87 8 5.33 9.4 19.81 8.14 42 9.8 63.41 8.13 6.41-.5 11.45-4.08 12.48-10.57a261.48 261.48 0 0 0 3.11-27.09 230.07 230.07 0 0 0-1-25.26c-.51-5.57-4.83-8.5-10.64-8.84a171.5 171.5 0 0 0-25.27.35 5.92 5.92 0 0 0-3.31-4.66C53.53 13 55.77 9.34 58 5.63a2.79 2.79 0 0 0 2.73-2.81 2.78 2.78 0 1 0-5.55 0 2.81 2.81 0 0 0 .28 1.23q-3.68 6.09-7.31 12.07l-1.74.3-5.88-11.74a2.75 2.75 0 0 0 .31-1.28 2.78 2.78 0 1 0-3.4 2.75L43.23 18a11.35 11.35 0 0 0-4 5.54zm1.52 57.87a3.66 3.66 0 0 1 3 4.19A3.53 3.53 0 0 1 40 89.09a3.67 3.67 0 0 1-2.84-4.21 3.51 3.51 0 0 1 3.6-3.43zm-7.51 1.07a1.77 1.77 0 0 1 1.36 2.06 1.73 1.73 0 0 1-1.77 1.7 1.78 1.78 0 0 1-1.35-2.06 1.75 1.75 0 0 1 1.76-1.7zm15.14 1.64A2 2 0 0 1 50 86.37a1.86 1.86 0 0 1-2 1.8A2 2 0 0 1 46.45 86a1.85 1.85 0 0 1 1.93-1.84z" fill="#021d29"/><path d="M16 65.91H2.71a1.38 1.38 0 0 1-1.34-1.85 2.58 2.58 0 0 1 2.31-1.85H17a1.37 1.37 0 0 1 1.34 1.85A2.57 2.57 0 0 1 16 65.91zm37.79-17.09l9.11.55c.52 0 .56.7.06 1.05l-8.78 6-.06 9.11c0 .52-.67.93-1 .65l-6.52-5.09-9.2 5.1c-.52.3-1-.12-.71-.64l4.76-9.17-5.6-6c-.32-.34.07-1 .61-1.05l9.46-.58L51.6 40c.33-.5 1-.51 1.09 0l1.1 8.8zm2.34-2.4l-.91-7.32c-.32-2.61-4-2.6-5.67 0L49 40H13.67a2.57 2.57 0 0 0-2.31 1.85 1.37 1.37 0 0 0 1.33 1.85h27.65a1.37 1.37 0 0 1 1.33 1.85 2.58 2.58 0 0 1-2.31 1.85h-37a2.57 2.57 0 0 0-2.3 1.87 1.38 1.38 0 0 0 1.34 1.85h28.43A1.37 1.37 0 0 1 31.16 53a2.55 2.55 0 0 1-2.31 1.84H16.93a2.56 2.56 0 0 0-2.31 1.85A1.37 1.37 0 0 0 16 58.51h19.32a1.37 1.37 0 0 1 1.33 1.85 2.57 2.57 0 0 1-2.31 1.85h-12A2.58 2.58 0 0 0 20 64.06a1.37 1.37 0 0 0 1.33 1.85h12.79c-.45 2.32 1.76 3.66 4.06 2.39l7.59-4.22 5.43 4.22c1.93 1.51 5.46-.68 5.47-3.39v-7.56l7.3-5c2.6-1.78 2.39-5.31-.32-5.47l-7.57-.45z" fill="#cb3828"/></g></svg></svg>